<svg xmlns="http://www.w3.org/2000/svg" width="159.096" height="25.5" viewBox="0 0 159.096 25.5"><defs><style>.a{fill:#fff;}</style></defs><g transform="translate(-0.009 -0.239)"><path class="a" d="M18.574.879A60.428,60.428,0,0,0,2.691,3.531,2.751,2.751,0,0,0,.981,4.673a4.352,4.352,0,0,0-.545,1.6A42.4,42.4,0,0,0,.084,15.3a4.523,4.523,0,0,0,.475,2.128,2.426,2.426,0,0,0,1.7.983q1.4.206,2.81.349l-.207,5.776A1.246,1.246,0,0,0,5.334,25.6a1.493,1.493,0,0,0,.813.3,1.622,1.622,0,0,0,1.574-.835,20.844,20.844,0,0,1,4.195-5.907,132.622,132.622,0,0,0,13.6-.495,3.465,3.465,0,0,0,3.1-2.486c.9-2.81,1.041-6.279,1.137-9.786a4.467,4.467,0,0,0-1.295-3.476,6.942,6.942,0,0,0-2.695-1.141A34.59,34.59,0,0,0,18.574.879Zm6.833,2.2a6.237,6.237,0,0,1,2.2.888,2.8,2.8,0,0,1,.8,2.44,37.163,37.163,0,0,1-1.025,9.2,2.244,2.244,0,0,1-2,1.7,128.537,128.537,0,0,1-13.75.491.685.685,0,0,0-.507.2,22.527,22.527,0,0,0-4.6,6.425.247.247,0,0,1-.209.116.1.1,0,0,1-.094-.1l.209-6.263a.7.7,0,0,0-.6-.7q-1.685-.161-3.36-.412c-.482-.074-.66-.206-.792-.4a3.375,3.375,0,0,1-.242-1.413,41.517,41.517,0,0,1,.326-8.7,3.914,3.914,0,0,1,.36-1.173,1.592,1.592,0,0,1,1.092-.6A59,59,0,0,1,18.532,2.232a33.426,33.426,0,0,1,6.875.845ZM7.16,8.449A2.344,2.344,0,0,0,7.067,11.3a1.945,1.945,0,0,0,1.309.825,2.416,2.416,0,0,0,1.68-.571,2.364,2.364,0,0,0,.306-3.128A1.9,1.9,0,0,0,8.89,7.6a2.2,2.2,0,0,0-1.73.848Zm7.873-.712A2.18,2.18,0,0,0,13.364,8.8a2.241,2.241,0,0,0-.317,2.155,2.115,2.115,0,0,0,3.719-.042,2.072,2.072,0,0,0,0-2.029,1.983,1.983,0,0,0-1.415-1.13,1.656,1.656,0,0,0-.317-.021Zm6.391.137a2.436,2.436,0,0,0-.676.074,2.118,2.118,0,0,0-1.5,2.282,2.243,2.243,0,0,0,.8,1.533,2.3,2.3,0,0,0,1.912.412,2.055,2.055,0,0,0,1.543-1.511,2.127,2.127,0,0,0-.275-1.871,2.3,2.3,0,0,0-1.806-.919ZM8.831,8.952a.473.473,0,0,1,.423.243,1.093,1.093,0,0,1-.085,1.331c-.3.259-.482.282-.612.264a.589.589,0,0,1-.38-.275.972.972,0,0,1,.655-1.564Zm6.3.148a1.1,1.1,0,0,1,.444.422.686.686,0,0,1,.032.708.819.819,0,0,1-1.321.191,1.269,1.269,0,0,1,.212-.877.822.822,0,0,1,.633-.445Zm7.015.5a1.2,1.2,0,0,1,.064.718.629.629,0,0,1-.518.539.866.866,0,0,1-.792-.137.911.911,0,0,1-.307-.613c-.06-.611.159-.752.507-.845A1.045,1.045,0,0,1,22.143,9.6Z" transform="translate(0 -0.215)"/><path class="a" d="M57.61,3.4a.776.776,0,0,1,.191-.465.581.581,0,0,1,.465-.206H62.8a.777.777,0,0,1,.473.191.586.586,0,0,1,.244.481v7.233H71.1V3.4a.666.666,0,0,1,.687-.672h4.472a.942.942,0,0,1,.534.153.545.545,0,0,1,.229.489V24.716a.62.62,0,0,1-.2.5.771.771,0,0,1-.518.168H71.787a.723.723,0,0,1-.5-.168.635.635,0,0,1-.191-.5V16.049H63.516v8.668a.618.618,0,0,1-.206.5.833.833,0,0,1-.558.175H58.266q-.64,0-.656-.595ZM99.362,25.129a.947.947,0,0,1-.42.213,2.074,2.074,0,0,1-.419.046h-2.3a1.044,1.044,0,0,1-.473-.1,1.018,1.018,0,0,1-.336-.267,1.583,1.583,0,0,1-.228-.382,3.244,3.244,0,0,1-.153-.442l-.473-1.954a7.4,7.4,0,0,1-.664,1.076,5.641,5.641,0,0,1-1.106,1.129,6.153,6.153,0,0,1-1.6.886,5.917,5.917,0,0,1-2.137.359,7.2,7.2,0,0,1-5.577-2.5,8.4,8.4,0,0,1-1.549-2.709,9.8,9.8,0,0,1-.55-3.3v-10a1.327,1.327,0,0,1,.252-.877.991.991,0,0,1,.8-.3h3.525a1.361,1.361,0,0,1,.9.221,1.155,1.155,0,0,1,.244.862v9.934a2.723,2.723,0,0,0,.3,1.244,3.627,3.627,0,0,0,.786,1.037,3.762,3.762,0,0,0,1.106.71,3.228,3.228,0,0,0,1.259.259,2.813,2.813,0,0,0,1.137-.259,4.224,4.224,0,0,0,1.083-.695,3.709,3.709,0,0,0,.817-1.023,2.557,2.557,0,0,0,.32-1.243V7.136a1.44,1.44,0,0,1,.1-.519.829.829,0,0,1,.3-.4,1.406,1.406,0,0,1,.374-.167,1.608,1.608,0,0,1,.4-.046h3.449a1.223,1.223,0,0,1,.946.321,1.226,1.226,0,0,1,.29.855V24.259a1.123,1.123,0,0,1-.129.534.954.954,0,0,1-.359.381l.091-.045Zm17.717-2.106q-.412.412-.908.885a8.977,8.977,0,0,1-1.091.885,6.175,6.175,0,0,1-1.282.679,4.049,4.049,0,0,1-1.481.267,9.286,9.286,0,0,1-3.823-.778,9.148,9.148,0,0,1-3.006-2.129,9.8,9.8,0,0,1-1.968-3.182,10.79,10.79,0,0,1-.71-3.937,10.771,10.771,0,0,1,.71-3.944,9.827,9.827,0,0,1,1.968-3.174,9.054,9.054,0,0,1,3.006-2.121,9.368,9.368,0,0,1,3.823-.771,4.6,4.6,0,0,1,1.534.244,5.651,5.651,0,0,1,1.266.626,6.909,6.909,0,0,1,1.053.862q.48.481.908.939V1.4a1.2,1.2,0,0,1,.3-.823,1.13,1.13,0,0,1,.893-.336H121.7a1.185,1.185,0,0,1,.42.084,1.423,1.423,0,0,1,.405.237,1.233,1.233,0,0,1,.3.366.986.986,0,0,1,.115.473V24.213q0,1.175-1.236,1.175h-2.991a1.178,1.178,0,0,1-.473-.077.75.75,0,0,1-.283-.221,1.539,1.539,0,0,1-.206-.366q-.108-.258-.228-.511l-.443-1.191Zm-8.775-7.31a5.571,5.571,0,0,0,.313,1.885,4.465,4.465,0,0,0,.893,1.518,4.239,4.239,0,0,0,1.4,1.015,4.288,4.288,0,0,0,1.809.374,4.836,4.836,0,0,0,1.839-.351,4.687,4.687,0,0,0,1.5-.97,4.831,4.831,0,0,0,1.466-3.258v-.214a4.821,4.821,0,0,0-.367-1.861,4.932,4.932,0,0,0-1.015-1.557,4.809,4.809,0,0,0-1.526-1.06,4.633,4.633,0,0,0-1.9-.389,4.148,4.148,0,0,0-1.809.389,4.214,4.214,0,0,0-1.4,1.06,4.805,4.805,0,0,0-.893,1.557,5.545,5.545,0,0,0-.312,1.861Zm32.352,7.31q-.412.412-.908.885a8.977,8.977,0,0,1-1.091.885,6.175,6.175,0,0,1-1.282.679,4.049,4.049,0,0,1-1.481.267,9.28,9.28,0,0,1-3.822-.778,9.149,9.149,0,0,1-3.007-2.129A9.812,9.812,0,0,1,127.1,19.65a10.8,10.8,0,0,1-.71-3.937,10.784,10.784,0,0,1,.71-3.944,9.827,9.827,0,0,1,1.968-3.174,9.054,9.054,0,0,1,3.007-2.121,9.363,9.363,0,0,1,3.822-.771,4.6,4.6,0,0,1,1.534.244,5.651,5.651,0,0,1,1.266.626,6.91,6.91,0,0,1,1.053.862q.481.481.908.939V1.4a1.2,1.2,0,0,1,.3-.823,1.131,1.131,0,0,1,.893-.336h3.433a1.185,1.185,0,0,1,.42.084A1.405,1.405,0,0,1,146.1.56a1.235,1.235,0,0,1,.3.366.993.993,0,0,1,.114.473V24.213q0,1.175-1.236,1.175h-2.991a1.178,1.178,0,0,1-.473-.077.75.75,0,0,1-.282-.221,1.54,1.54,0,0,1-.206-.366q-.108-.258-.229-.511l-.443-1.191Zm-8.775-7.31a5.572,5.572,0,0,0,.313,1.885,4.487,4.487,0,0,0,.893,1.518,4.239,4.239,0,0,0,1.4,1.015,4.285,4.285,0,0,0,1.808.374,4.836,4.836,0,0,0,1.839-.351,4.687,4.687,0,0,0,1.5-.97,4.843,4.843,0,0,0,1.465-3.258v-.214a4.821,4.821,0,0,0-.367-1.861,4.932,4.932,0,0,0-1.015-1.557,4.809,4.809,0,0,0-1.526-1.06,4.633,4.633,0,0,0-1.9-.389,4.143,4.143,0,0,0-1.808.389,4.216,4.216,0,0,0-1.4,1.06,4.8,4.8,0,0,0-.893,1.557,5.544,5.544,0,0,0-.312,1.861Zm18.695-14.3A1.362,1.362,0,0,1,150.82.59a.969.969,0,0,1,.839-.336H155.4a.717.717,0,0,1,.321.084,1.129,1.129,0,0,1,.313.237,1.355,1.355,0,0,1,.244.366,1.106,1.106,0,0,1,.1.473v22.8a1.123,1.123,0,0,1-.329.877,1.21,1.21,0,0,1-.847.3h-3.541a1.034,1.034,0,0,1-.839-.3,1.358,1.358,0,0,1-.244-.877Zm25.7,21.654A10.167,10.167,0,0,1,173.253,25a9.21,9.21,0,0,1-3.556.695,10.386,10.386,0,0,1-7.218-2.877,10.142,10.142,0,0,1-2.228-3.182,9.583,9.583,0,0,1-.824-3.983,10.311,10.311,0,0,1,1.259-4.959,10,10,0,0,1,1.465-2.022,9.268,9.268,0,0,1,1.93-1.58A9.513,9.513,0,0,1,166.4,6.068a9.352,9.352,0,0,1,2.64-.366,9.008,9.008,0,0,1,2.457.336,9.576,9.576,0,0,1,2.236.946,9.719,9.719,0,0,1,1.915,1.466,9.891,9.891,0,0,1,1.5,1.869,9.019,9.019,0,0,1,.969,2.167,8.281,8.281,0,0,1,.343,2.373q0,.794-.023,1.3a1.467,1.467,0,0,1-.236.8,1.143,1.143,0,0,1-.71.412,6.891,6.891,0,0,1-1.457.115H165.043a3.8,3.8,0,0,0,.618,1.634,3.879,3.879,0,0,0,1.076,1.045,4.318,4.318,0,0,0,1.3.558,5.472,5.472,0,0,0,1.3.167,5.865,5.865,0,0,0,1.129-.114,8.087,8.087,0,0,0,1.122-.305,6.346,6.346,0,0,0,.991-.443,3.3,3.3,0,0,0,.725-.526,3.166,3.166,0,0,1,.42-.3.745.745,0,0,1,.374-.1.736.736,0,0,1,.405.137,3.189,3.189,0,0,1,.465.4l1.618,1.831a1.035,1.035,0,0,1,.214.359,1.189,1.189,0,0,1,.046.328.848.848,0,0,1-.168.527,1.919,1.919,0,0,1-.4.389Zm-7.34-12.712a2.923,2.923,0,0,0-1.152.236,4.348,4.348,0,0,0-1.046.634,5.441,5.441,0,0,0-.877.9,5.522,5.522,0,0,0-.633,1.023h7.8a8.989,8.989,0,0,0-.694-1.1,4.7,4.7,0,0,0-.855-.885,3.691,3.691,0,0,0-1.1-.595,4.4,4.4,0,0,0-1.442-.214Z" transform="translate(-19.351)"/></g></svg>